<svg xmlns="http://www.w3.org/2000/svg" width="147" height="170" viewBox="0 0 147 170">
  <g id="Group_1" data-name="Group 1" transform="translate(65.5 182.5)">
    <g id="Polygon_1" data-name="Polygon 1" transform="translate(81.5 -182.5) rotate(90)" fill="#0a192f">
      <path d="M 122.8847274780273 145 L 47.11527252197266 145 C 44.98018264770508 145 42.98988723754883 143.8517913818359 41.92111206054688 142.0034484863281 L 4.04695463180542 76.50343322753906 C 2.975727319717407 74.65084075927734 2.975727319717407 72.34913635253906 4.04695463180542 70.49654388427734 L 41.92111206054688 4.996568202972412 C 42.98988723754883 3.148227214813232 44.98018264770508 2 47.11529541015625 2 L 122.8847045898438 2 C 125.0198211669922 2 127.0101165771484 3.148227214813232 128.0789031982422 4.996591091156006 L 165.9530487060547 70.49656677246094 C 167.0242767333984 72.34915924072266 167.0242767333984 74.65084075927734 165.9530487060547 76.50341033935547 L 128.0789031982422 142.0034484863281 C 127.0101165771484 143.8517761230469 125.0198211669922 145 122.8847274780273 145 Z" stroke="none"/>
      <path d="M 47.11527252197266 4 C 45.69187164306641 4 44.36502838134766 4.765472412109375 43.65249633789062 5.997726440429688 L 5.778350830078125 71.49772644042969 C 5.064193725585938 72.73277282714844 5.064193725585938 74.26719665527344 5.778350830078125 75.50227355957031 L 43.65247344970703 141.0022430419922 C 44.36499786376953 142.2344970703125 45.69187164306641 143 47.11527252197266 143 L 122.8847198486328 143 C 124.3081207275391 143 125.6349792480469 142.2345275878906 126.3475036621094 141.0022735595703 L 164.2216491699219 75.50227355957031 C 164.9358062744141 74.26722717285156 164.9358062744141 72.73277282714844 164.2216491699219 71.49772644042969 L 126.3475036621094 5.997726440429688 C 125.6349792480469 4.765472412109375 124.3081207275391 4 122.8847045898438 4 L 47.11527252197266 4 M 47.11527252197266 0 L 122.8847045898438 0 C 125.7409515380859 0 128.3805236816406 1.522796630859375 129.8102722167969 3.99542236328125 L 167.6844177246094 69.49542236328125 C 169.1170196533203 71.97295379638672 169.1170196533203 75.02704620361328 167.6844177246094 77.50457763671875 L 129.8102722167969 143.0045776367188 C 128.3805236816406 145.4772033691406 125.7409515380859 147 122.8847198486328 147 L 47.11527252197266 147 C 44.25904846191406 147 41.61947631835938 145.4772033691406 40.189697265625 143.0045776367188 L 2.315582275390625 77.50454711914062 C 0.8829803466796875 75.02702331542969 0.8829803466796875 71.97295379638672 2.315582275390625 69.49542236328125 L 40.18972778320312 3.99542236328125 C 41.61947631835938 1.522796630859375 44.25904846191406 0 47.11527252197266 0 Z" stroke="none" fill="#64ffda"/>
    </g>
    <text id="A" transform="translate(-24 -60)" fill="#64ffda" font-size="110" font-family="Calibri"><tspan x="0" y="0">A</tspan></text>
  </g>
</svg>
